<svg xmlns="http://www.w3.org/2000/svg">
	<symbol id="steam">
		<g>
			<path d="M24 12c0 6.627-5.373 12-12 12-5.782 0-10.608-4.091-11.744-9.537l4.764 2.003c.285 1.441 1.56 2.547 3.115 2.534 1.723-.017 3.105-1.414 3.116-3.129l.007-.003 3.602-2.684c2.304.024 4.14-1.833 4.14-4.091 0-2.26-1.834-4.093-4.093-4.093-2.234 0-4.048 1.791-4.09 4.015l-2.64 3.693c-.668-.014-1.269.169-1.791.51l-6.294-2.646c.708-5.953 5.765-10.572 11.908-10.572 6.627 0 12 5.373 12 12zm-16.577 5.477l-1.544-.649c.38.858 1.236 1.461 2.249 1.457 1.346-.012 2.422-1.11 2.41-2.455-.012-1.329-1.104-2.41-2.432-2.41-.287.001-.57.05-.86.16l1.542.648c.898.378 1.319 1.411.941 2.308-.376.896-1.409 1.318-2.306.941zm7.484-5.602c-1.533 0-2.781-1.249-2.781-2.782 0-1.534 1.248-2.782 2.781-2.782 1.534 0 2.781 1.248 2.781 2.782 0 1.533-1.247 2.782-2.781 2.782zm0-.682c1.159 0 2.1-.942 2.1-2.101 0-1.158-.94-2.102-2.1-2.102s-2.102.943-2.102 2.102c.001 1.159.943 2.101 2.102 2.101z"/>
		</g>
	</symbol>
	<symbol id="discord">
		<g>
			<path d="M19.54 0c1.356 0 2.46 1.104 2.46 2.472v21.528l-2.58-2.28-1.452-1.344-1.536-1.428.636 2.22h-13.608c-1.356 0-2.46-1.104-2.46-2.472v-16.224c0-1.368 1.104-2.472 2.46-2.472h16.08zm-4.632 15.672c2.652-.084 3.672-1.824 3.672-1.824 0-3.864-1.728-6.996-1.728-6.996-1.728-1.296-3.372-1.26-3.372-1.26l-.168.192c2.04.624 2.988 1.524 2.988 1.524-1.248-.684-2.472-1.02-3.612-1.152-.864-.096-1.692-.072-2.424.024l-.204.024c-.42.036-1.44.192-2.724.756-.444.204-.708.348-.708.348s.996-.948 3.156-1.572l-.12-.144s-1.644-.036-3.372 1.26c0 0-1.728 3.132-1.728 6.996 0 0 1.008 1.74 3.66 1.824 0 0 .444-.54.804-.996-1.524-.456-2.1-1.416-2.1-1.416l.336.204.048.036.047.027.014.006.047.027c.3.168.6.3.876.408.492.192 1.08.384 1.764.516.9.168 1.956.228 3.108.012.564-.096 1.14-.264 1.74-.516.42-.156.888-.384 1.38-.708 0 0-.6.984-2.172 1.428.36.456.792.972.792.972zm-5.58-5.604c-.684 0-1.224.6-1.224 1.332 0 .732.552 1.332 1.224 1.332.684 0 1.224-.6 1.224-1.332.012-.732-.54-1.332-1.224-1.332zm4.38 0c-.684 0-1.224.6-1.224 1.332 0 .732.552 1.332 1.224 1.332.684 0 1.224-.6 1.224-1.332 0-.732-.54-1.332-1.224-1.332z"/>
		</g>
	</symbol>
	<symbol id="vk">
		<g>
			<path d="M12 0c-6.627 0-12 5.373-12 12s5.373 12 12 12 12-5.373 12-12-5.373-12-12-12zm6.344 16.163h-1.867c-1.055 0-1.232-.601-2.102-1.469-.785-.785-1.22-.183-1.202.935.006.297-.141.534-.495.534-1.105 0-2.694.156-4.304-1.58-1.647-1.779-3.374-5.348-3.374-5.699 0-.208.172-.301.459-.301h1.898c.503 0 .545.249.686.568.584 1.331 1.981 4.002 2.354 2.511.214-.856.301-2.839-.615-3.01-.52-.096.396-.652 1.722-.652.33 0 .688.035 1.054.12.673.156.676.458.666.898-.034 1.666-.235 2.786.204 3.069.419.271 1.521-1.502 2.104-2.871.159-.378.191-.632.643-.632h2.322c1.216 0-.159 1.748-1.21 3.112-.847 1.099-.802 1.12.183 2.034.701.651 1.53 1.54 1.53 2.043 0 .238-.186.39-.656.39z"/>
		</g>
	</symbol>
	<symbol id="github">
		<g>
			<path d="M12 0c-6.626 0-12 5.373-12 12 0 5.302 3.438 9.8 8.207 11.387.599.111.793-.261.793-.577v-2.234c-3.338.726-4.033-1.416-4.033-1.416-.546-1.387-1.333-1.756-1.333-1.756-1.089-.745.083-.729.083-.729 1.205.084 1.839 1.237 1.839 1.237 1.07 1.834 2.807 1.304 3.492.997.107-.775.418-1.305.762-1.604-2.665-.305-5.467-1.334-5.467-5.931 0-1.311.469-2.381 1.236-3.221-.124-.303-.535-1.524.117-3.176 0 0 1.008-.322 3.301 1.23.957-.266 1.983-.399 3.003-.404 1.02.005 2.047.138 3.006.404 2.291-1.552 3.297-1.23 3.297-1.23.653 1.653.242 2.874.118 3.176.77.84 1.235 1.911 1.235 3.221 0 4.609-2.807 5.624-5.479 5.921.43.372.823 1.102.823 2.222v3.293c0 .319.192.694.801.576 4.765-1.589 8.199-6.086 8.199-11.386 0-6.627-5.373-12-12-12z"/>
		</g>
	</symbol>
	<symbol id="instagram">
		<g>
			<path d="M14.829 6.302c-.738-.034-.96-.04-2.829-.04s-2.09.007-2.828.04c-1.899.087-2.783.986-2.87 2.87-.033.738-.041.959-.041 2.828s.008 2.09.041 2.829c.087 1.879.967 2.783 2.87 2.87.737.033.959.041 2.828.041 1.87 0 2.091-.007 2.829-.041 1.899-.086 2.782-.988 2.87-2.87.033-.738.04-.96.04-2.829s-.007-2.09-.04-2.828c-.088-1.883-.973-2.783-2.87-2.87zm-2.829 9.293c-1.985 0-3.595-1.609-3.595-3.595 0-1.985 1.61-3.594 3.595-3.594s3.595 1.609 3.595 3.594c0 1.985-1.61 3.595-3.595 3.595zm3.737-6.491c-.464 0-.84-.376-.84-.84 0-.464.376-.84.84-.84.464 0 .84.376.84.84 0 .463-.376.84-.84.84zm-1.404 2.896c0 1.289-1.045 2.333-2.333 2.333s-2.333-1.044-2.333-2.333c0-1.289 1.045-2.333 2.333-2.333s2.333 1.044 2.333 2.333zm-2.333-12c-6.627 0-12 5.373-12 12s5.373 12 12 12 12-5.373 12-12-5.373-12-12-12zm6.958 14.886c-.115 2.545-1.532 3.955-4.071 4.072-.747.034-.986.042-2.887.042s-2.139-.008-2.886-.042c-2.544-.117-3.955-1.529-4.072-4.072-.034-.746-.042-.985-.042-2.886 0-1.901.008-2.139.042-2.886.117-2.544 1.529-3.955 4.072-4.071.747-.035.985-.043 2.886-.043s2.14.008 2.887.043c2.545.117 3.957 1.532 4.071 4.071.034.747.042.985.042 2.886 0 1.901-.008 2.14-.042 2.886z"/>
		</g>
	</symbol>
	<symbol id="email">
		<g>
			<path d="M13.718 10.528c0 .792-.268 1.829-.684 2.642-1.009 1.98-3.063 1.967-3.063-.14 0-.786.27-1.799.687-2.58 1.021-1.925 3.06-1.624 3.06.078zm10.282 1.472c0 6.627-5.373 12-12 12s-12-5.373-12-12 5.373-12 12-12 12 5.373 12 12zm-5-1.194c0-3.246-2.631-5.601-6.256-5.601-4.967 0-7.744 3.149-7.744 7.073 0 3.672 2.467 6.517 7.024 6.517 2.52 0 4.124-.726 5.122-1.288l-.687-.991c-1.022.593-2.251 1.136-4.256 1.136-3.429 0-5.733-2.199-5.733-5.473 0-5.714 6.401-6.758 9.214-5.071 2.624 1.642 2.524 5.578.582 7.083-1.034.826-2.199.799-1.821-.756 0 0 1.212-4.489 1.354-4.975h-1.364l-.271.952c-.278-.785-.943-1.295-1.911-1.295-2.018 0-3.722 2.19-3.722 4.783 0 1.73.913 2.804 2.38 2.804 1.283 0 1.95-.726 2.364-1.373-.3 2.898 5.725 1.557 5.725-3.525z"/>
		</g>
	</symbol>
</svg>